<svg xmlns="http://www.w3.org/2000/svg" viewBox="0 0 982.95 873.69"><defs><style>.cls-1{fill:#ffbf00;}.cls-2,.cls-4,.cls-7{fill:#0d0c0b;}.cls-3{fill:none;stroke-width:4px;}.cls-3,.cls-4,.cls-7{stroke:#0d0c0b;stroke-linecap:round;stroke-miterlimit:10;}.cls-4{stroke-width:3px;}.cls-5{fill:#fff;}.cls-6{fill:#ed1e79;opacity:0.35;}</style></defs><title>logo</title><g id="Layer_2" data-name="Layer 2"><g id="Layer_1-2" data-name="Layer 1"><path class="cls-1" d="M549.34,868.84A430.73,430.73,0,0,1,381.72,41.45,430.73,430.73,0,0,1,717,835,428,428,0,0,1,549.34,868.84Z"/><path class="cls-2" d="M549.34,10.61C785.5,10.61,977,202.06,977,438.23S785.5,865.84,549.34,865.84,121.73,674.39,121.73,438.23,313.18,10.61,549.34,10.61m0-6A433.73,433.73,0,0,0,380.56,837.76,433.72,433.72,0,0,0,718.12,38.69,430.94,430.94,0,0,0,549.34,4.61Z"/><path class="cls-1" d="M436.55,868.84A430.73,430.73,0,0,1,268.93,41.45,428,428,0,0,1,436.55,7.61H497.6l.69,861.23Z"/><path class="cls-2" d="M494.76,10.61h0m-.16,0,.68,855.23H436.55C200.38,865.84,8.94,674.39,8.94,438.23S200.38,10.61,436.55,10.61H494.6m6-6h-64A433.73,433.73,0,0,0,267.77,837.76a430.91,430.91,0,0,0,168.78,34.08h64.74v-6L500.6,10.61v-6Z"/><path class="cls-1" d="M549.34,865.84c-236.16,0-427.61-191.45-427.61-427.61S313.18,10.61,549.34,10.61"/><path class="cls-2" d="M549.34,865.84a427.63,427.63,0,1,1,0-855.23l-21,.72c-7,.49-13.94,1.16-20.9,1.73-1.75.11-3.48.38-5.21.61l-5.2.69-10.39,1.4c-.86.12-1.73.22-2.59.36l-2.58.47-5.15,1L466,19.46a429.13,429.13,0,0,0-217.7,117.76L234,152.42c-4.52,5.29-9.11,10.53-13.58,15.87-4.25,5.51-8.63,10.93-12.81,16.5l-6,8.52-3,4.26c-1,1.42-2,2.82-3,4.31a426.33,426.33,0,0,0-63.28,153.39,429.36,429.36,0,0,0,0,165.91A425.66,425.66,0,0,0,195.6,674.57a435.08,435.08,0,0,0,52.72,64.67A429,429,0,0,0,466,857l10.31,1.91,5.15,1,2.58.48c.86.14,1.73.24,2.59.36l10.39,1.39,5.2.69c1.73.23,3.46.5,5.21.61,7,.57,13.93,1.24,20.9,1.73Z"/><path class="cls-3" d="M458.1,581.38c9.85,32.53,63.6,57.4,128.46,57.4s118.6-24.87,128.46-57.4"/><line class="cls-4" x1="101.9" y1="459.3" x2="1.5" y2="459.3"/><line class="cls-4" x1="127.92" y1="533.66" x2="16.37" y2="533.66"/><line class="cls-4" x1="142.8" y1="589.44" x2="27.53" y2="589.44"/><line class="cls-4" x1="194.85" y1="682.4" x2="83.3" y2="682.4"/><line class="cls-4" x1="168.83" y1="645.21" x2="57.28" y2="645.21"/><line class="cls-4" x1="224.6" y1="719.58" x2="113.05" y2="719.58"/><line class="cls-4" x1="261.79" y1="756.76" x2="146.52" y2="756.76"/><line class="cls-4" x1="280.38" y1="801.39" x2="194.85" y2="801.39"/><line class="cls-4" x1="298.97" y1="812.54" x2="224.6" y2="812.54"/><line class="cls-4" x1="276.66" y1="782.79" x2="168.83" y2="782.79"/><circle class="cls-2" cx="363.42" cy="438.23" r="85.53"/><circle class="cls-5" cx="350.38" cy="421.47" r="34.92"/><path class="cls-5" d="M404.46,465a12.64,12.64,0,0,1-17.88,17.88c-4.94-4.94-9.44-17.44-4.5-22.38S399.52,460.07,404.46,465Z"/><circle class="cls-2" cx="772.44" cy="438.23" r="85.53"/><ellipse class="cls-6" cx="251.87" cy="519.1" rx="57.42" ry="21.37"/><ellipse class="cls-6" cx="891.43" cy="515.38" rx="57.42" ry="21.37"/><path class="cls-7" d="M183.7,86.84C259.31,38.5,294.63,55.77,266,115.58,376,14.24,534.46,6.9,534.46,6.9S327.17-33.08,183.7,86.84Z"/><path class="cls-7" d="M183.7,786.85c75.61,48.34,126,32.51,78.53-28.73C372.32,859.46,534.46,866.8,534.46,866.8S327.17,906.77,183.7,786.85Z"/><circle class="cls-2" cx="772.44" cy="438.23" r="85.53"/><circle class="cls-5" cx="759.4" cy="421.47" r="34.92"/><path class="cls-5" d="M813.48,465a12.64,12.64,0,0,1-17.88,17.88c-4.94-4.94-9.44-17.44-4.5-22.38S808.54,460.07,813.48,465Z"/></g></g></svg>